<svg xmlns="http://www.w3.org/2000/svg" xmlns:xlink="http://www.w3.org/1999/xlink" version="1.1" viewBox="0 0 28 28"><title>icon_ANC APY</title><g id="Symbols" fill="none" fill-rule="evenodd" stroke="none" stroke-width="1"><g id="icon_ANC-APY"><g stroke="currentColor" stroke-linecap="round" stroke-linejoin="round" stroke-width="1.5" transform="translate(2.000000, 2.000000)"><path id="Stroke-1" d="M0.75,3.75 C0.75,5.407 3.437,6.75 6.75,6.75 C10.063,6.75 12.75,5.407 12.75,3.75 C12.75,2.093 10.063,0.75 6.75,0.75 C3.437,0.75 0.75,2.093 0.75,3.75 Z"/><path id="Stroke-3" d="M12.75,6.75 C12.75,8.407 10.064,9.75 6.75,9.75 C3.436,9.75 0.75,8.407 0.75,6.75"/><line id="Stroke-5" x1="12.75" x2="12.75" y1="9.75" y2="3.75"/><path id="Stroke-7" d="M0.75,3.75 L0.75,18.75 C0.75,20.407 3.436,21.75 6.75,21.75 C7.505,21.751 8.259,21.677 9,21.527"/><path id="Stroke-9" d="M0.75,15.75 C0.75,17.407 3.436,18.75 6.75,18.75 C7.505,18.751 8.259,18.677 9,18.527"/><path id="Stroke-11" d="M0.75,12.75 C0.75,14.407 3.436,15.75 6.75,15.75 C7.505,15.751 8.259,15.677 9,15.527"/><path id="Stroke-13" d="M0.75,9.75 C0.75,11.407 3.436,12.75 6.75,12.75 C7.505,12.751 8.259,12.676 9,12.527"/><path id="Stroke-15" d="M11.25,14.25 C11.25,15.907 13.937,17.25 17.25,17.25 C20.563,17.25 23.25,15.907 23.25,14.25 C23.25,12.593 20.563,11.25 17.25,11.25 C13.937,11.25 11.25,12.593 11.25,14.25 Z"/><path id="Stroke-17" d="M11.25,14.25 L11.25,20.25 C11.25,21.907 13.936,23.25 17.25,23.25 C20.564,23.25 23.25,21.907 23.25,20.25 L23.25,14.25"/><path id="Stroke-19" d="M23.25,17.25 C23.25,18.907 20.564,20.25 17.25,20.25 C13.936,20.25 11.25,18.907 11.25,17.25"/></g></g></g></svg>