<svg xmlns="http://www.w3.org/2000/svg" xmlns:xlink="http://www.w3.org/1999/xlink" version="1.1" viewBox="0 0 28 28"><title>icon_Borrow value</title><g id="Symbols" fill="none" fill-rule="evenodd" stroke="none" stroke-width="1"><g id="icon_Borrow-value"><g stroke="currentColor" stroke-linejoin="round" stroke-width="1.5" transform="translate(2.000000, 2.000000)"><line id="Stroke-1" x1="17.25" x2="17.25" y1="14.25" y2="13.5" stroke-linecap="round"/><line id="Stroke-2" x1="17.25" x2="17.25" y1="21" y2="20.25" stroke-linecap="round"/><g id="Group-15"><path id="Stroke-3" stroke-linecap="round" d="M11.25,17.25 C11.25,20.563 13.937,23.25 17.25,23.25 C20.563,23.25 23.25,20.563 23.25,17.25 C23.25,13.937 20.563,11.25 17.25,11.25 C13.937,11.25 11.25,13.937 11.25,17.25 Z"/><path id="Stroke-5" stroke-linecap="round" d="M8.25,17.25 L2.25,17.25 C1.421,17.25 0.75,16.578 0.75,15.75 L0.75,3.765 C0.75,2.937 1.421,2.265 2.25,2.265 L15.75,2.265 C16.578,2.265 17.25,2.937 17.25,3.765 L17.25,8.25"/><line id="Stroke-7" x1=".75" x2="17.25" y1="6.75" y2="6.75"/><line id="Stroke-9" x1="5.243" x2="5.243" y1="3.75" y2=".75" stroke-linecap="round"/><line id="Stroke-11" x1="12.743" x2="12.743" y1="3.75" y2=".75" stroke-linecap="round"/><path id="Stroke-13" stroke-linecap="round" d="M19.6494,15.668 C19.1354,14.89 18.2534,14.376 17.2504,14.376 C15.6634,14.376 14.3764,15.663 14.3764,17.25 C14.3764,18.837 15.6634,20.124 17.2504,20.124 C18.3184,20.124 19.2504,19.541 19.7464,18.677"/></g></g></g></g></svg>