<svg xmlns="http://www.w3.org/2000/svg" xmlns:xlink="http://www.w3.org/1999/xlink" version="1.1" viewBox="0 0 28 28"><title>icon_Borrow APR</title><g id="Symbols" fill="none" fill-rule="evenodd" stroke="none" stroke-width="1"><g id="icon_Borrow-APR"><g stroke="currentColor" stroke-linecap="round" stroke-linejoin="round" stroke-width="1.5" transform="translate(1.000000, 5.000000)"><path id="Stroke-1" d="M18.2488,12.0051 L18.2488,12.7031 C18.2338,14.4011 16.8458,15.7651 15.1478,15.7501 L15.1388,15.7501 L14.9988,15.7501"/><path id="Stroke-3" d="M1.4686,1.6457 L11.4066,4.7547 C12.9256,5.2537 13.9646,6.6567 13.9986,8.2547 L13.9986,17.7647 C14.1046,18.8927 13.2766,19.8937 12.1476,19.9997 C11.8966,20.0237 11.6426,19.9997 11.3986,19.9317 L3.3506,17.4717 C1.8346,16.9217 0.7826,15.6067 0.7506,14.0147 L0.7506,3.5627 C0.7166,2.0507 1.9086,0.7937 3.4206,0.7497 L15.2486,0.7497 C16.9056,0.7497 18.2486,2.0927 18.2486,3.7497 L18.2486,4.4557"/><path id="Stroke-5" d="M10.8738,12.0002 C11.0808,12.0002 11.2488,12.1682 11.2488,12.3752 C11.2488,12.5822 11.0808,12.7502 10.8738,12.7502 C10.6668,12.7502 10.4988,12.5822 10.4988,12.3752 C10.4988,12.1682 10.6668,12.0002 10.8738,12.0002"/><line id="Stroke-7" x1="16.785" x2="25.883" y1="8.25" y2="8.25"/><polyline id="Stroke-9" points="22.133 4.5 25.883 8.25 22.133 12"/></g></g></g></svg>