<svg xmlns="http://www.w3.org/2000/svg" xmlns:xlink="http://www.w3.org/1999/xlink" width="60" height="60" version="1.1" viewBox="0 0 60 60"><title>akrt</title><defs><linearGradient id="linearGradient-1" x1=".127%" x2="99.913%" y1="49.956%" y2="49.956%"><stop offset="37.5%" stop-color="#000" stop-opacity="0"/><stop offset="100%" stop-color="#000" stop-opacity="0"/></linearGradient><linearGradient id="linearGradient-2" x1=".128%" x2="100.165%" y1="49.998%" y2="49.998%"><stop offset="37.5%" stop-color="#000" stop-opacity=".063"/><stop offset="100%" stop-color="#000" stop-opacity="0"/></linearGradient><linearGradient id="linearGradient-3" x1=".129%" x2="100.11%" y1="50.039%" y2="50.039%"><stop offset="37.5%" stop-color="#000" stop-opacity=".125"/><stop offset="100%" stop-color="#000" stop-opacity="0"/></linearGradient><linearGradient id="linearGradient-4" x1=".13%" x2="100.053%" y1="49.965%" y2="49.965%"><stop offset="37.5%" stop-color="#000" stop-opacity=".188"/><stop offset="100%" stop-color="#000" stop-opacity="0"/></linearGradient><linearGradient id="linearGradient-5" x1=".131%" x2="99.995%" y1="50.095%" y2="50.095%"><stop offset="37.5%" stop-color="#000" stop-opacity=".25"/><stop offset="100%" stop-color="#000" stop-opacity="0"/></linearGradient><linearGradient id="linearGradient-6" x1=".132%" x2="99.936%" y1="50.021%" y2="50.021%"><stop offset="37.5%" stop-color="#000" stop-opacity=".313"/><stop offset="100%" stop-color="#000" stop-opacity="0"/></linearGradient><linearGradient id="linearGradient-7" x1=".133%" x2="100.197%" y1="49.946%" y2="49.946%"><stop offset="37.5%" stop-color="#000" stop-opacity=".375"/><stop offset="100%" stop-color="#000" stop-opacity="0"/></linearGradient><linearGradient id="linearGradient-8" x1=".134%" x2="100.138%" y1="49.984%" y2="49.984%"><stop offset="37.5%" stop-color="#000" stop-opacity=".438"/><stop offset="100%" stop-color="#000" stop-opacity="0"/></linearGradient><linearGradient id="linearGradient-9" x1=".135%" x2="100.081%" y1="49.91%" y2="49.91%"><stop offset="37.5%" stop-color="#000" stop-opacity=".5"/><stop offset="100%" stop-color="#000" stop-opacity="0"/></linearGradient><linearGradient id="linearGradient-10" x1=".136%" x2="100.021%" y1="49.944%" y2="49.944%"><stop offset="37.5%" stop-color="#000" stop-opacity=".563"/><stop offset="100%" stop-color="#000" stop-opacity="0"/></linearGradient><linearGradient id="linearGradient-11" x1=".136%" x2="99.96%" y1="49.971%" y2="49.971%"><stop offset="37.5%" stop-color="#000" stop-opacity=".625"/><stop offset="100%" stop-color="#000" stop-opacity="0"/></linearGradient><linearGradient id="linearGradient-12" x1=".138%" x2="100.231%" y1="50.003%" y2="50.003%"><stop offset="37.5%" stop-color="#000" stop-opacity=".688"/><stop offset="100%" stop-color="#000" stop-opacity="0"/></linearGradient><linearGradient id="linearGradient-13" x1=".139%" x2="100.17%" y1="49.967%" y2="49.967%"><stop offset="37.5%" stop-color="#000" stop-opacity=".75"/><stop offset="100%" stop-color="#000" stop-opacity="0"/></linearGradient><linearGradient id="linearGradient-14" x1=".14%" x2="100.111%" y1="49.996%" y2="49.996%"><stop offset="37.5%" stop-color="#000" stop-opacity=".813"/><stop offset="100%" stop-color="#000" stop-opacity="0"/></linearGradient><linearGradient id="linearGradient-15" x1=".141%" x2="100.049%" y1="50.036%" y2="50.036%"><stop offset="37.5%" stop-color="#000" stop-opacity=".875"/><stop offset="100%" stop-color="#000" stop-opacity="0"/></linearGradient><linearGradient id="linearGradient-16" x1=".142%" x2="99.986%" y1="50.062%" y2="50.062%"><stop offset="37.5%" stop-color="#000" stop-opacity=".938"/><stop offset="100%" stop-color="#000" stop-opacity="0"/></linearGradient><linearGradient id="linearGradient-17" x1=".143%" x2="99.922%" y1="49.962%" y2="49.962%"><stop offset="37.5%" stop-color="#000"/><stop offset="100%" stop-color="#000" stop-opacity="0"/></linearGradient><linearGradient id="linearGradient-18" x1=".144%" x2="99.922%" y1="50.468%" y2="50.468%"><stop offset="0%" stop-color="gray"/><stop offset="32.75%" stop-color="#838383"/><stop offset="59.05%" stop-color="#8D8D8D"/><stop offset="83.02%" stop-color="#9E9E9E"/><stop offset="100%" stop-color="#AFAFAF"/></linearGradient><linearGradient id="linearGradient-19" x1="50.033%" x2="50.033%" y1=".579%" y2="100.375%"><stop offset="35%" stop-color="#DFDFDF"/><stop offset="64.54%" stop-color="#DDD"/><stop offset="75.17%" stop-color="#D6D6D6"/><stop offset="82.76%" stop-color="#CBCBCB"/><stop offset="88.89%" stop-color="#BABABA"/><stop offset="94.14%" stop-color="#A4A4A4"/><stop offset="98.7%" stop-color="#898989"/><stop offset="100%" stop-color="gray"/></linearGradient><linearGradient id="linearGradient-20" x1=".144%" x2="99.922%" y1="49.84%" y2="49.84%"><stop offset="0%" stop-color="#DFDFDF"/><stop offset="2.097%" stop-color="#E1E1E1"/><stop offset="24.35%" stop-color="#F2F2F2"/><stop offset="48.72%" stop-color="#FCFCFC"/><stop offset="79.11%" stop-color="#FFF"/><stop offset="84.44%" stop-color="#FCFCFC"/><stop offset="88.71%" stop-color="#F2F2F2"/><stop offset="92.63%" stop-color="#E1E1E1"/><stop offset="96.3%" stop-color="#C9C9C9"/><stop offset="96.6%" stop-color="#C7C7C7"/><stop offset="100%" stop-color="#FFF"/></linearGradient><linearGradient id="linearGradient-21" x1="-1008.3%" x2="509.326%" y1="51.659%" y2="51.659%"><stop offset="0%" stop-color="#242424"/><stop offset="33.46%" stop-color="#2D2D2D"/><stop offset="79.11%" stop-color="#303030"/><stop offset="86.68%" stop-color="#2D2D2D"/><stop offset="92.75%" stop-color="#232323"/><stop offset="96.6%" stop-color="#181818"/><stop offset="100%" stop-color="#303030"/></linearGradient><linearGradient id="linearGradient-22" x1="-1082.126%" x2="435.684%" y1="52.323%" y2="52.323%"><stop offset="0%" stop-color="#242424"/><stop offset="33.46%" stop-color="#2D2D2D"/><stop offset="79.11%" stop-color="#303030"/><stop offset="86.68%" stop-color="#2D2D2D"/><stop offset="92.75%" stop-color="#232323"/><stop offset="96.6%" stop-color="#181818"/><stop offset="100%" stop-color="#303030"/></linearGradient><linearGradient id="linearGradient-23" x1="-610.836%" x2="262.942%" y1="50.107%" y2="50.107%"><stop offset="0%" stop-color="#242424"/><stop offset="33.46%" stop-color="#2D2D2D"/><stop offset="79.11%" stop-color="#303030"/><stop offset="86.68%" stop-color="#2D2D2D"/><stop offset="92.75%" stop-color="#232323"/><stop offset="96.6%" stop-color="#181818"/><stop offset="100%" stop-color="#303030"/></linearGradient><linearGradient id="linearGradient-24" x1="-1113.547%" x2="404.047%" y1="52.482%" y2="52.482%"><stop offset="0%" stop-color="#242424"/><stop offset="33.46%" stop-color="#2D2D2D"/><stop offset="79.11%" stop-color="#303030"/><stop offset="86.68%" stop-color="#2D2D2D"/><stop offset="92.75%" stop-color="#232323"/><stop offset="96.6%" stop-color="#181818"/><stop offset="100%" stop-color="#303030"/></linearGradient><linearGradient id="linearGradient-25" x1="-1187.221%" x2="330.374%" y1="49.023%" y2="49.023%"><stop offset="0%" stop-color="#242424"/><stop offset="33.46%" stop-color="#2D2D2D"/><stop offset="79.11%" stop-color="#303030"/><stop offset="86.68%" stop-color="#2D2D2D"/><stop offset="92.75%" stop-color="#232323"/><stop offset="96.6%" stop-color="#181818"/><stop offset="100%" stop-color="#303030"/></linearGradient><linearGradient id="linearGradient-26" x1="-195.709%" x2="678.094%" y1="50.151%" y2="50.151%"><stop offset="0%" stop-color="#242424"/><stop offset="33.46%" stop-color="#2D2D2D"/><stop offset="79.11%" stop-color="#303030"/><stop offset="86.68%" stop-color="#2D2D2D"/><stop offset="92.75%" stop-color="#232323"/><stop offset="96.6%" stop-color="#181818"/><stop offset="100%" stop-color="#303030"/></linearGradient><linearGradient id="linearGradient-27" x1="-287.332%" x2="1230.511%" y1="51.974%" y2="51.974%"><stop offset="0%" stop-color="#242424"/><stop offset="33.46%" stop-color="#2D2D2D"/><stop offset="79.11%" stop-color="#303030"/><stop offset="86.68%" stop-color="#2D2D2D"/><stop offset="92.75%" stop-color="#232323"/><stop offset="96.6%" stop-color="#181818"/><stop offset="100%" stop-color="#303030"/></linearGradient><linearGradient id="linearGradient-28" x1="-360.926%" x2="1156.553%" y1="49.396%" y2="49.396%"><stop offset="0%" stop-color="#242424"/><stop offset="33.46%" stop-color="#2D2D2D"/><stop offset="79.11%" stop-color="#303030"/><stop offset="86.68%" stop-color="#2D2D2D"/><stop offset="92.75%" stop-color="#232323"/><stop offset="96.6%" stop-color="#181818"/><stop offset="100%" stop-color="#303030"/></linearGradient><linearGradient id="linearGradient-29" x1="-135.115%" x2="738.718%" y1="50.242%" y2="50.242%"><stop offset="0%" stop-color="#242424"/><stop offset="33.46%" stop-color="#2D2D2D"/><stop offset="79.11%" stop-color="#303030"/><stop offset="86.68%" stop-color="#2D2D2D"/><stop offset="92.75%" stop-color="#232323"/><stop offset="96.6%" stop-color="#181818"/><stop offset="100%" stop-color="#303030"/></linearGradient><linearGradient id="linearGradient-30" x1="-195.706%" x2="678.088%" y1="51.372%" y2="51.372%"><stop offset="0%" stop-color="#242424"/><stop offset="33.46%" stop-color="#2D2D2D"/><stop offset="79.11%" stop-color="#303030"/><stop offset="86.68%" stop-color="#2D2D2D"/><stop offset="92.75%" stop-color="#232323"/><stop offset="96.6%" stop-color="#181818"/><stop offset="100%" stop-color="#303030"/></linearGradient><linearGradient id="linearGradient-31" x1="-165.418%" x2="708.415%" y1="48.663%" y2="48.663%"><stop offset="0%" stop-color="#242424"/><stop offset="33.46%" stop-color="#2D2D2D"/><stop offset="79.11%" stop-color="#303030"/><stop offset="86.68%" stop-color="#2D2D2D"/><stop offset="92.75%" stop-color="#232323"/><stop offset="96.6%" stop-color="#181818"/><stop offset="100%" stop-color="#303030"/></linearGradient><linearGradient id="linearGradient-32" x1="-135.115%" x2="738.718%" y1="51.135%" y2="51.135%"><stop offset="0%" stop-color="#242424"/><stop offset="33.46%" stop-color="#2D2D2D"/><stop offset="79.11%" stop-color="#303030"/><stop offset="86.68%" stop-color="#2D2D2D"/><stop offset="92.75%" stop-color="#232323"/><stop offset="96.6%" stop-color="#181818"/><stop offset="100%" stop-color="#303030"/></linearGradient><linearGradient id="linearGradient-33" x1="-1008.3%" x2="509.326%" y1="49.778%" y2="49.778%"><stop offset="0%" stop-color="#242424"/><stop offset="33.46%" stop-color="#2D2D2D"/><stop offset="79.11%" stop-color="#303030"/><stop offset="86.68%" stop-color="#2D2D2D"/><stop offset="92.75%" stop-color="#232323"/><stop offset="96.6%" stop-color="#181818"/><stop offset="100%" stop-color="#303030"/></linearGradient><linearGradient id="linearGradient-34" x1="-1082.126%" x2="435.684%" y1="49.009%" y2="49.009%"><stop offset="0%" stop-color="#242424"/><stop offset="33.46%" stop-color="#2D2D2D"/><stop offset="79.11%" stop-color="#303030"/><stop offset="86.68%" stop-color="#2D2D2D"/><stop offset="92.75%" stop-color="#232323"/><stop offset="96.6%" stop-color="#181818"/><stop offset="100%" stop-color="#303030"/></linearGradient><linearGradient id="linearGradient-35" x1="-1055.679%" x2="461.974%" y1="49.474%" y2="49.474%"><stop offset="0%" stop-color="#242424"/><stop offset="33.46%" stop-color="#2D2D2D"/><stop offset="79.11%" stop-color="#303030"/><stop offset="86.68%" stop-color="#2D2D2D"/><stop offset="92.75%" stop-color="#232323"/><stop offset="96.6%" stop-color="#181818"/><stop offset="100%" stop-color="#303030"/></linearGradient><linearGradient id="linearGradient-36" x1="-1134.595%" x2="383%" y1="48.691%" y2="48.691%"><stop offset="0%" stop-color="#242424"/><stop offset="33.46%" stop-color="#2D2D2D"/><stop offset="79.11%" stop-color="#303030"/><stop offset="86.68%" stop-color="#2D2D2D"/><stop offset="92.75%" stop-color="#232323"/><stop offset="96.6%" stop-color="#181818"/><stop offset="100%" stop-color="#303030"/></linearGradient><linearGradient id="linearGradient-37" x1="-1113.542%" x2="404.053%" y1="49.091%" y2="49.091%"><stop offset="0%" stop-color="#242424"/><stop offset="33.46%" stop-color="#2D2D2D"/><stop offset="79.11%" stop-color="#303030"/><stop offset="86.68%" stop-color="#2D2D2D"/><stop offset="92.75%" stop-color="#232323"/><stop offset="96.6%" stop-color="#181818"/><stop offset="100%" stop-color="#303030"/></linearGradient><linearGradient id="linearGradient-38" x1="-1187.221%" x2="330.374%" y1="48.726%" y2="48.726%"><stop offset="0%" stop-color="#242424"/><stop offset="33.46%" stop-color="#2D2D2D"/><stop offset="79.11%" stop-color="#303030"/><stop offset="86.68%" stop-color="#2D2D2D"/><stop offset="92.75%" stop-color="#232323"/><stop offset="96.6%" stop-color="#181818"/><stop offset="100%" stop-color="#303030"/></linearGradient><linearGradient id="linearGradient-39" x1="-105.425%" x2="202.16%" y1="49.713%" y2="49.713%"><stop offset="0%" stop-color="#B41B00"/><stop offset="2.097%" stop-color="#B61D01"/><stop offset="24.35%" stop-color="#C72E0B"/><stop offset="48.72%" stop-color="#D13811"/><stop offset="79.11%" stop-color="#D43B13"/><stop offset="84.15%" stop-color="#D13812"/><stop offset="88.19%" stop-color="#C72F0F"/><stop offset="91.9%" stop-color="#B61F0A"/><stop offset="95.37%" stop-color="#9E0903"/><stop offset="96.6%" stop-color="#940000"/><stop offset="100%" stop-color="#D43B13"/></linearGradient><linearGradient id="linearGradient-40" x1="-107.238%" x2="209.642%" y1="47.497%" y2="47.497%"><stop offset="0%" stop-color="#00209F"/><stop offset="2.097%" stop-color="#0222A1"/><stop offset="24.35%" stop-color="#1333B2"/><stop offset="48.72%" stop-color="#1D3DBC"/><stop offset="79.11%" stop-color="#2040BF"/><stop offset="84.15%" stop-color="#1E3DBC"/><stop offset="88.19%" stop-color="#1933B2"/><stop offset="91.9%" stop-color="#1122A1"/><stop offset="95.37%" stop-color="#050A89"/><stop offset="96.6%" stop-color="#00007F"/><stop offset="100%" stop-color="#2040BF"/></linearGradient><linearGradient id="linearGradient-41" x1=".142%" x2="99.921%" y1="49.84%" y2="49.84%"><stop offset="0%" stop-color="#404040"/><stop offset="79.11%" stop-color="#FFF"/><stop offset="96.6%" stop-color="#FFF"/><stop offset="100%" stop-color="#FFF"/></linearGradient></defs><g id="GNB" fill="none" fill-rule="evenodd" stroke="none" stroke-width="1"><g id="Market" transform="translate(-160.000000, -873.000000)"><g id="akrt" transform="translate(160.000000, 873.000000)"><rect id="thum" width="60" height="60" x="0" y="0" opacity=".2"/><g id="Group" fill-rule="nonzero" transform="translate(4.000000, 4.000000)"><g id="aKRT"><path id="Shape" fill="#4BDB4B" d="M26,52 C11.7,52 0,40.3 0,26 C0,11.7 11.7,0 26,0 C40.3,0 52,11.7 52,26 C52,40.3 40.3,52 26,52 Z M26,3.9 C13.8,3.9 3.9,13.8 3.9,26 C3.9,38.2 13.8,48.1 26,48.1 C38.2,48.1 48.1,38.2 48.1,26 C48.1,13.8 38.2,3.9 26,3.9 Z"/><g id="Symbol_1_" transform="translate(9.000000, 9.000000)"><g id="Group" fill="#0E3CA5" transform="translate(7.000000, 0.000000)"><path id="Path" d="M7.7,26.3 C8.6,29.7 11.9,32.3 13.6,32.2 C13.7,32.2 19.9,31 23.4,25.3 C26.1,20.8 25.2,16.5 21.5,16.4 C20.1,16.5 5.9,19.8 7.7,26.3"/><path id="Path" d="M21.1,4.4 C21.1,4.4 21.1,4.4 21.1,4.4 L21.1,4.4 C18.3,2 14.7,0.6 10.8,0.6 C8.5,0.6 6.3,1.1 4.3,2 C3.9,2.1 3.6,2.3 3.3,2.5 C3.1,2.6 2.9,2.7 2.6,2.9 L2.7,2.9 C2,3.4 1.5,3.9 1,4.5 C-3.6,10.5 11.8,14.9 20,14.9 C23.7,17.6 24.8,7.3 21.1,4.4 Z"/></g><g id="Group" fill="#5493F7" transform="translate(0.000000, 1.000000)"><path id="Path" d="M12.2,3.5 C10.1,6.7 3.1,8.9 1.9,8.5 C1.9,8.5 1.9,8.5 1.9,8.5 C1.9,8.4 2,8.3 2,8.2 C2.4,7.4 2.9,6.7 3.4,6 C3.9,5.3 4.5,4.7 5.1,4 C5.7,3.3 6.4,2.8 7.1,2.3 C7.5,2 8,1.7 8.4,1.4 C9.4,0.8 10.4,0.8 10.7,0.8 C13.9,1 12.2,3.5 12.2,3.5"/><path id="Path" d="M10.5,25.9 C10.7,26.9 10.5,30.8 10.3,31.2 C10.1,31.2 9.8,31.2 8.7,30.6 C8.1,30.3 7.6,29.9 7.1,29.6 C6.4,29.1 5.8,28.5 5.1,27.9 C4.4,27.3 3.9,26.6 3.4,25.9 C2.9,25.2 2.4,24.5 2,23.7 C1.6,22.9 1.3,22.1 1,21.3 C0.7,20.5 0.5,19.6 0.4,18.7 C0.3,17.8 0.2,16.9 0.2,16 C0.2,15.1 0.3,14.2 0.4,13.3 C0.5,12.4 0.8,11.5 1,10.7 C1.1,10.5 1.1,10.4 1.2,10.2 L1.2,10.2 C2.4,11.8 3.8,13.3 5,14.9 C6.1,16.4 7.7,19 8,19.5 C10,22.9 10.3,24.9 10.5,25.9"/><path id="Path" d="M33.8,16 C33.8,18.2 33.4,20.3 32.6,22.2 C30.6,24.3 17.3,19.1 17.2,19 C15.4,18.2 9.8,15.8 9.3,11.9 C8.6,6.4 19.7,2.6 24.6,2.4 C25.2,2.4 27,2.4 28,3.3 C31.6,6.4 33.8,11 33.8,16"/><path id="Path" d="M24.8,30.9 C23.3,31.6 21.7,31.1 22.2,29.7 C23,27 30,24.2 31.5,24 C31.7,24 31.8,24.1 31.7,24.3 C30,27.1 27.7,29.4 24.8,30.9"/></g></g><g id="Group" transform="translate(16.000000, 22.000000)"><g id="Path" opacity=".3"><path fill="url(#linearGradient-1)" d="M1.7,0.6 C1.1,0.6 0.6,1 0.6,1.5 C0.6,6.7 0.6,13.3 0.6,18.6 C0.6,19.3 1.1,19.8 1.7,19.8 C17.6,20 33,24.5 33,22.3 C33,16.6 33,8.8 33,3.1 C33,0.7 17.6,0.6 1.7,0.6 Z" opacity="0" transform="translate(0.000000, 3.000000)"/><path fill="url(#linearGradient-2)" d="M1.7,0.6 C1.1,0.6 0.6,1 0.6,1.5 C0.6,6.7 0.6,13.3 0.6,18.6 C0.6,19.3 1.1,19.8 1.7,19.8 C17.5,19.9 32.7,24.3 32.7,22.1 C32.7,16.5 32.7,8.7 32.7,3.1 C32.8,0.9 17.5,0.6 1.7,0.6 Z" opacity=".063" transform="translate(0.000000, 3.000000)"/><path fill="url(#linearGradient-3)" d="M1.7,0.6 C1.1,0.6 0.6,1 0.6,1.5 C0.6,6.7 0.6,13.3 0.6,18.6 C0.6,19.3 1.1,19.8 1.7,19.8 C17.3,19.9 32.5,24.1 32.5,21.9 C32.5,16.4 32.5,8.7 32.5,3.2 C32.5,1 17.4,0.6 1.7,0.6 Z" opacity=".125" transform="translate(0.000000, 3.000000)"/><path fill="url(#linearGradient-4)" d="M1.7,0.6 C1.1,0.6 0.6,1 0.6,1.5 C0.6,6.7 0.6,13.3 0.6,18.6 C0.6,19.3 1.1,19.8 1.7,19.8 C17.2,19.9 32.3,23.9 32.3,21.8 C32.3,16.3 32.3,8.8 32.3,3.3 C32.3,1.2 17.3,0.6 1.7,0.6 Z" opacity=".188" transform="translate(0.000000, 3.000000)"/><path fill="url(#linearGradient-5)" d="M1.7,0.6 C1.1,0.6 0.6,1 0.6,1.5 C0.6,6.7 0.6,13.3 0.6,18.6 C0.6,19.3 1.1,19.8 1.7,19.8 C17.1,19.9 32.1,23.6 32.1,21.6 C32.1,16.2 32.1,8.7 32.1,3.3 C32.1,1.3 17.1,0.6 1.7,0.6 Z" opacity=".25" transform="translate(0.000000, 3.000000)"/><path fill="url(#linearGradient-6)" d="M1.7,0.6 C1.1,0.6 0.6,1 0.6,1.5 C0.6,6.7 0.6,13.3 0.6,18.6 C0.6,19.3 1.1,19.8 1.7,19.8 C17,19.9 31.9,23.4 31.9,21.5 C31.9,16.2 31.9,8.8 31.9,3.5 C31.9,1.5 17,0.6 1.7,0.6 Z" opacity=".313" transform="translate(0.000000, 3.000000)"/><path fill="url(#linearGradient-7)" d="M1.7,0.6 C1.1,0.6 0.6,1 0.6,1.5 C0.6,6.7 0.6,13.3 0.6,18.6 C0.6,19.3 1.1,19.8 1.7,19.8 C16.9,19.9 31.6,23.2 31.6,21.4 C31.6,16.2 31.6,8.8 31.6,3.6 C31.7,1.7 16.9,0.6 1.7,0.6 Z" opacity=".375" transform="translate(0.000000, 3.000000)"/><path fill="url(#linearGradient-8)" d="M1.7,0.6 C1.1,0.6 0.6,1 0.6,1.5 C0.6,6.7 0.6,13.3 0.6,18.6 C0.6,19.3 1.1,19.8 1.7,19.8 C16.8,19.9 31.4,23 31.4,21.2 C31.4,16.1 31.4,8.8 31.4,3.6 C31.5,1.8 16.8,0.6 1.7,0.6 Z" opacity=".438" transform="translate(0.000000, 3.000000)"/><path fill="url(#linearGradient-9)" d="M1.7,0.6 C1.1,0.6 0.6,1 0.6,1.5 C0.6,6.7 0.6,13.3 0.6,18.6 C0.6,19.3 1.1,19.8 1.7,19.8 C16.7,19.9 31.2,22.8 31.2,21.1 C31.2,16 31.2,8.8 31.2,3.8 C31.2,2 16.7,0.6 1.7,0.6 Z" opacity=".5" transform="translate(0.000000, 3.000000)"/><path fill="url(#linearGradient-10)" d="M1.7,0.6 C1.1,0.6 0.6,1 0.6,1.5 C0.6,6.7 0.6,13.3 0.6,18.6 C0.6,19.3 1.1,19.8 1.7,19.8 C16.6,19.9 31,22.6 31,20.9 C31,15.9 31,8.8 31,3.8 C31,2.2 16.6,0.6 1.7,0.6 Z" opacity=".563" transform="translate(0.000000, 3.000000)"/><path fill="url(#linearGradient-11)" d="M1.7,0.6 C1.1,0.6 0.6,1 0.6,1.5 C0.6,6.7 0.6,13.3 0.6,18.6 C0.6,19.3 1.1,19.8 1.7,19.8 C16.5,19.9 30.8,22.3 30.8,20.8 C30.8,15.9 30.8,8.9 30.8,4 C30.8,2.3 16.5,0.6 1.7,0.6 Z" opacity=".625" transform="translate(0.000000, 3.000000)"/><path fill="url(#linearGradient-12)" d="M1.7,0.6 C1.1,0.6 0.6,1 0.6,1.5 C0.6,6.7 0.6,13.3 0.6,18.6 C0.6,19.3 1.1,19.8 1.7,19.8 C16.4,19.9 30.6,22.1 30.5,20.6 C30.5,15.8 30.5,8.8 30.5,4 C30.6,2.5 16.4,0.6 1.7,0.6 Z" opacity=".688" transform="translate(0.000000, 3.000000)"/><path fill="url(#linearGradient-13)" d="M1.7,0.6 C1.1,0.6 0.6,1 0.6,1.5 C0.6,6.7 0.6,13.3 0.6,18.6 C0.6,19.3 1.1,19.8 1.7,19.8 C16.2,19.8 30.3,21.9 30.3,20.5 C30.3,15.7 30.3,8.9 30.3,4.1 C30.4,2.6 16.3,0.6 1.7,0.6 Z" opacity=".75" transform="translate(0.000000, 3.000000)"/><path fill="url(#linearGradient-14)" d="M1.7,0.6 C1.1,0.6 0.6,1 0.6,1.5 C0.6,6.7 0.6,13.3 0.6,18.6 C0.6,19.3 1.1,19.8 1.7,19.8 C16.1,19.8 30.1,21.7 30.1,20.3 C30.1,15.6 30.1,8.8 30.1,4.2 C30.1,2.8 16.2,0.6 1.7,0.6 Z" opacity=".813" transform="translate(0.000000, 3.000000)"/><path fill="url(#linearGradient-15)" d="M1.7,0.6 C1.1,0.6 0.6,1 0.6,1.5 C0.6,6.7 0.6,13.3 0.6,18.6 C0.6,19.3 1.1,19.8 1.7,19.8 C16,19.8 29.9,21.4 29.9,20.2 C29.9,15.6 29.9,8.9 29.9,4.3 C29.9,3 16.1,0.6 1.7,0.6 Z" opacity=".875" transform="translate(0.000000, 3.000000)"/><path fill="url(#linearGradient-16)" d="M1.7,0.6 C1.1,0.6 0.6,1 0.6,1.5 C0.6,6.7 0.6,13.3 0.6,18.6 C0.6,19.3 1.1,19.8 1.7,19.8 C15.9,19.8 29.7,21.2 29.7,20 C29.7,15.5 29.7,8.9 29.7,4.3 C29.7,3.1 15.9,0.6 1.7,0.6 Z" opacity=".938" transform="translate(0.000000, 3.000000)"/><path fill="url(#linearGradient-17)" d="M1.7,0.6 C1.1,0.6 0.6,1 0.6,1.5 C0.6,6.7 0.6,13.3 0.6,18.6 C0.6,19.3 1.1,19.8 1.7,19.8 C15.8,19.9 29.5,21 29.5,19.9 C29.5,15.5 29.5,8.9 29.5,4.5 C29.5,3.3 15.8,0.7 1.7,0.6 Z" transform="translate(0.000000, 3.000000)"/></g><g><g transform="translate(0.000000, 17.000000)"><path id="Path" fill="url(#linearGradient-18)" d="M0.6,4.6 C0.6,5.3 1.1,5.8 1.7,5.8 C15.8,5.9 29.5,5.2 29.5,3.1 C29.5,-3.3 0.6,4.6 0.6,4.6 Z"/><path id="Shape" fill="url(#linearGradient-19)" d="M0.6,4.6 L0.6,4.6 C0.6,5.3 1.1,5.8 1.7,5.8 C15.8,5.9 29.4,5.5 29.5,3.1 C29.5,-3.3 0.6,4.6 0.6,4.6 Z M1.7,5.7 C1.7,5.7 1.6,5.7 1.6,5.7 C1.2,5.7 0.8,5.3 0.7,4.9 C0.8,5.4 1.2,5.7 1.7,5.7 C15.8,5.6 29.2,1.3 29.2,3.2 C29.3,5.2 15.8,5.8 1.7,5.7 Z"/></g><path id="Path" fill="url(#linearGradient-20)" d="M1.7,3.4 L1.7,3.4 C1.1,3.4 0.6,3.9 0.6,4.5 C0.6,10.2 0.6,15.9 0.6,21.6 C0.6,22.2 1.1,22.7 1.7,22.7 C15.8,22.6 29.5,17.9 29.5,20.2 C29.5,13.8 29.5,7.4 29.5,1 C29.5,-1.4 15.8,3.3 1.7,3.4 Z"/><g id="Path"><path fill="url(#linearGradient-21)" d="M16,4.7 C16.3,4.5 16.4,4.4 16.7,4.1 C16.5,3.8 16.3,3.5 16.1,3.3 C15.9,3.1 15.7,2.8 15.5,2.5 C15.2,2.7 15.1,2.8 14.8,3.1 C15,3.4 15.2,3.7 15.4,3.9 C15.6,4.2 15.7,4.4 16,4.7 Z" transform="translate(5.000000, 2.000000)"/><path fill="url(#linearGradient-22)" d="M17.4,6.6 C17.7,6.4 17.8,6.3 18.1,6 C17.9,5.7 17.7,5.4 17.5,5.2 C17.3,5 17.1,4.7 16.9,4.4 C16.6,4.6 16.5,4.7 16.2,5 C16.4,5.3 16.6,5.6 16.8,5.8 C17,6.1 17.2,6.3 17.4,6.6 Z" transform="translate(5.000000, 2.000000)"/><path fill="url(#linearGradient-23)" d="M17.1,4 C17.3,4.3 17.5,4.5 17.7,4.8 C17.9,5.1 18.1,5.4 18.4,5.8 C18.7,5.6 18.8,5.5 19.1,5.2 C18.8,4.8 18.6,4.5 18.4,4.2 C18.2,3.9 18,3.6 17.8,3.4 C17.6,3.1 17.4,2.9 17.2,2.6 C17,2.3 16.8,2 16.5,1.7 C16.2,1.9 16.1,2 15.8,2.3 C16.1,2.7 16.3,3 16.5,3.3 C16.7,3.5 16.9,3.8 17.1,4 Z" transform="translate(5.000000, 2.000000)"/><path fill="url(#linearGradient-24)" d="M18,3 C18.3,2.8 18.4,2.7 18.7,2.4 C18.5,2.1 18.3,1.8 18.1,1.6 C17.9,1.4 17.7,1.1 17.5,0.8 C17.2,1 17.1,1.1 16.8,1.4 C17,1.7 17.2,2 17.4,2.2 C17.6,2.5 17.7,2.7 18,3 Z" transform="translate(5.000000, 2.000000)"/><path fill="url(#linearGradient-25)" d="M18.9,2.8 C18.6,3 18.5,3.1 18.2,3.4 C18.4,3.7 18.6,4 18.8,4.2 C19,4.4 19.2,4.7 19.4,5 C19.7,4.8 19.8,4.7 20.1,4.5 C19.9,4.2 19.7,3.9 19.5,3.7 C19.3,3.4 19.1,3.1 18.9,2.8 Z" transform="translate(5.000000, 2.000000)"/><path fill="url(#linearGradient-26)" d="M4.1,14.6 C3.9,14.3 3.7,14 3.5,13.7 C3.3,13.4 3,13.1 2.8,12.7 C2.5,12.9 2.4,13 2.1,13.2 C2.4,13.6 2.6,13.9 2.8,14.2 C3,14.5 3.2,14.8 3.4,15.1 C3.6,15.4 3.8,15.7 4,16 C4.2,16.3 4.5,16.6 4.7,17 C5,16.8 5.1,16.7 5.4,16.5 C5.1,16.1 4.9,15.8 4.7,15.5 C4.5,15.2 4.3,14.9 4.1,14.6 Z" transform="translate(5.000000, 2.000000)"/><path fill="url(#linearGradient-27)" d="M1.7,14.8 C1.9,15.1 2.1,15.3 2.3,15.7 C2.6,15.5 2.7,15.4 3,15.2 C2.8,14.9 2.6,14.6 2.4,14.3 C2.2,14 2,13.8 1.8,13.4 C1.5,13.6 1.4,13.7 1.1,13.9 C1.3,14.3 1.5,14.6 1.7,14.8 Z" transform="translate(5.000000, 2.000000)"/><path fill="url(#linearGradient-28)" d="M3.2,15.5 C2.9,15.7 2.8,15.8 2.5,16 C2.7,16.3 2.9,16.6 3.1,16.9 C3.3,17.2 3.5,17.4 3.7,17.8 C4,17.6 4.1,17.5 4.4,17.3 C4.2,17 4,16.7 3.8,16.4 C3.6,16.1 3.4,15.9 3.2,15.5 Z" transform="translate(5.000000, 2.000000)"/><path fill="url(#linearGradient-29)" d="M2.1,16.1 C1.9,15.8 1.7,15.5 1.5,15.2 C1.3,14.9 1,14.6 0.8,14.2 C0.5,14.4 0.4,14.5 0.1,14.7 C0.4,15.1 0.6,15.4 0.8,15.7 C1,16 1.2,16.3 1.4,16.6 C1.6,16.9 1.8,17.2 2,17.5 C2.2,17.8 2.5,18.1 2.7,18.5 C3,18.3 3.1,18.2 3.4,18 C3.1,17.6 2.9,17.3 2.7,17 C2.5,16.7 2.3,16.4 2.1,16.1 Z" transform="translate(5.000000, 2.000000)"/><path fill="url(#linearGradient-30)" d="M4,5.2 C3.8,5.5 3.6,5.9 3.4,6.2 C3.2,6.5 3,6.8 2.8,7.2 C2.6,7.5 2.3,7.9 2.1,8.3 C2.4,8.5 2.5,8.5 2.8,8.7 C3.1,8.3 3.3,7.9 3.5,7.6 C3.7,7.3 3.9,6.9 4.1,6.6 C4.3,6.3 4.5,6 4.7,5.6 C4.9,5.3 5.2,4.9 5.4,4.4 C5.1,4.3 5,4.2 4.7,4 C4.5,4.5 4.3,4.9 4,5.2 Z" transform="translate(5.000000, 2.000000)"/><path fill="url(#linearGradient-31)" d="M2.4,5.7 C2.2,6 2,6.3 1.8,6.7 C1.6,7 1.3,7.4 1.1,7.8 C1.4,8 1.5,8 1.8,8.2 C2.1,7.8 2.3,7.4 2.5,7.1 C2.7,6.8 2.9,6.4 3.1,6.1 C3.3,5.8 3.5,5.5 3.7,5.1 C3.9,4.8 4.2,4.4 4.4,4 C4.1,3.8 4,3.8 3.7,3.6 C3.4,4 3.2,4.4 3,4.7 C2.8,5 2.6,5.3 2.4,5.7 Z" transform="translate(5.000000, 2.000000)"/><path fill="url(#linearGradient-32)" d="M1.5,6.4 C1.7,6.1 1.9,5.7 2.1,5.4 C2.3,5.1 2.5,4.8 2.7,4.4 C2.9,4.1 3.2,3.7 3.4,3.3 C3.1,3.1 3,3.1 2.7,2.9 C2.4,3.3 2.2,3.7 2,4 C1.8,4.3 1.6,4.7 1.4,5 C1.2,5.3 1,5.6 0.8,6 C0.6,6.3 0.3,6.7 0.1,7.1 C0.4,7.3 0.5,7.3 0.8,7.5 C1,7.1 1.2,6.8 1.5,6.4 Z" transform="translate(5.000000, 2.000000)"/><path fill="url(#linearGradient-33)" d="M16.7,13.4 C16.4,13.3 16.3,13.2 16,13.1 C15.8,13.5 15.6,13.8 15.4,14.1 C15.2,14.4 15,14.7 14.8,15.1 C15.1,15.2 15.2,15.3 15.5,15.4 C15.7,15 15.9,14.7 16.1,14.4 C16.2,14.1 16.4,13.8 16.7,13.4 Z" transform="translate(5.000000, 2.000000)"/><path fill="url(#linearGradient-34)" d="M16.9,13 C17.1,12.6 17.3,12.3 17.5,12 C17.7,11.7 17.9,11.4 18.1,11 C17.8,10.9 17.7,10.8 17.4,10.7 C17.2,11.1 17,11.4 16.8,11.7 C16.6,12 16.4,12.3 16.2,12.7 C16.5,12.8 16.6,12.9 16.9,13 Z" transform="translate(5.000000, 2.000000)"/><path fill="url(#linearGradient-35)" d="M17.6,13.9 C17.3,13.8 17.2,13.7 16.9,13.6 C16.7,14 16.5,14.3 16.3,14.6 C16.1,14.9 15.9,15.2 15.7,15.6 C16,15.7 16.1,15.8 16.4,15.9 C16.6,15.5 16.8,15.2 17,14.9 C17.2,14.6 17.4,14.3 17.6,13.9 Z" transform="translate(5.000000, 2.000000)"/><path fill="url(#linearGradient-36)" d="M18.5,12.5 C18.7,12.2 18.9,11.9 19.1,11.5 C18.8,11.4 18.7,11.3 18.4,11.2 C18.2,11.6 18,11.9 17.8,12.2 C17.6,12.5 17.4,12.8 17.2,13.2 C17.5,13.3 17.6,13.4 17.9,13.5 C18.1,13.1 18.3,12.8 18.5,12.5 Z" transform="translate(5.000000, 2.000000)"/><path fill="url(#linearGradient-37)" d="M17.4,15.1 C17.2,15.4 17,15.7 16.8,16.1 C17.1,16.2 17.2,16.3 17.5,16.4 C17.7,16 17.9,15.7 18.1,15.4 C18.3,15.1 18.5,14.8 18.7,14.4 C18.4,14.3 18.3,14.2 18,14.1 C17.7,14.5 17.6,14.8 17.4,15.1 Z" transform="translate(5.000000, 2.000000)"/><path fill="url(#linearGradient-38)" d="M18.8,12.7 C18.6,13 18.4,13.3 18.2,13.7 C18.5,13.8 18.6,13.9 18.9,14 C19.1,13.6 19.3,13.3 19.5,13 C19.7,12.7 19.9,12.4 20.1,12 C19.8,11.9 19.7,11.8 19.4,11.7 C19.2,12 19,12.3 18.8,12.7 Z" transform="translate(5.000000, 2.000000)"/></g><path id="Path" fill="url(#linearGradient-39)" d="M19.6,9.5 C19.4,9.1 19.2,8.7 18.9,8.3 C18.6,8 18.2,7.7 17.8,7.4 C17.4,7.2 17,7.1 16.6,7 C16.2,6.9 15.8,6.9 15.4,7 C15,7 14.6,7.1 14.2,7.3 C13.8,7.4 13.4,7.6 13,7.9 C12.6,8.1 12.3,8.4 12,8.7 C11.7,9 11.4,9.4 11.1,9.8 C10.8,10.2 10.6,10.7 10.6,11.2 C10.5,11.7 10.5,12.1 10.6,12.6 C10.7,13 10.9,13.5 11.1,13.8 C11.4,14.2 11.7,14.5 12.1,14.7 C12.5,14.9 13,15 13.4,15.1 C13.9,15.1 14.3,15.1 14.8,14.9 C15.3,14.7 15.7,14.5 16.1,14.2 C16.5,13.9 16.8,13.5 17.1,13 C17.5,13.2 17.8,13.4 18.1,13.5 C18.4,13.7 18.7,13.8 19.1,14 C19.4,13.5 19.6,13 19.7,12.5 C19.8,12 19.9,11.5 19.9,11 C19.9,10.4 19.8,9.9 19.6,9.5 Z"/><path id="Path" fill="url(#linearGradient-40)" d="M18.4,10.7 C18,10.5 17.6,10.5 17.2,10.5 C16.8,10.5 16.4,10.7 16,10.9 C15.6,11.1 15.3,11.5 15.1,11.9 C14.9,12.3 14.5,12.6 14.2,12.9 C13.8,13.1 13.4,13.3 13,13.3 C12.6,13.3 12.2,13.3 11.8,13.1 C11.4,12.9 11.2,12.6 11,12.3 C10.8,11.9 10.7,11.5 10.8,11.1 C10.8,10.7 11,10.3 11.2,9.9 C10.9,10.4 10.7,10.9 10.6,11.4 C10.5,11.9 10.4,12.4 10.4,12.9 C10.4,13.4 10.5,13.9 10.7,14.3 C10.9,14.7 11.1,15.2 11.4,15.5 C11.7,15.9 12.1,16.2 12.5,16.4 C12.9,16.6 13.3,16.7 13.7,16.8 C14.1,16.9 14.5,16.9 14.9,16.9 C15.3,16.9 15.7,16.8 16.1,16.6 C16.5,16.5 16.9,16.3 17.3,16 C17.7,15.8 18,15.5 18.3,15.1 C18.6,14.8 18.9,14.4 19.1,14 C19.3,13.6 19.5,13.2 19.5,12.7 C19.5,12.3 19.4,11.9 19.3,11.5 C19.1,11.1 18.8,10.8 18.4,10.7 Z"/><g id="Path" fill="url(#linearGradient-41)" opacity=".19"><path d="M1.7,3.4 L1.7,3.4 C1.1,3.4 0.6,3.9 0.6,4.5 L0.6,4.5 C0.6,10.2 0.6,15.9 0.6,21.6 L0.6,21.6 C0.6,22.2 1.1,22.7 1.7,22.7 L1.7,22.7 C15.8,22.6 29.5,17.9 29.5,20.2 C29.5,13.8 29.5,7.4 29.5,1 C29.5,-1.4 15.8,3.3 1.7,3.4 Z"/></g></g></g></g></g></g></g></g></svg>